<?xml version="1.0" standalone="no"?><!DOCTYPE svg PUBLIC "-//W3C//DTD SVG 1.1//EN" "http://www.w3.org/Graphics/SVG/1.1/DTD/svg11.dtd"><svg t="1682579364036" class="icon" viewBox="0 0 1024 1024" version="1.1" xmlns="http://www.w3.org/2000/svg" p-id="676" width="64" height="64" xmlns:xlink="http://www.w3.org/1999/xlink"><path d="M512 1002.212766C241.112057 1002.212766 21.787234 782.887943 21.787234 512S241.112057 21.787234 512 21.787234 1002.212766 241.112057 1002.212766 512 782.887943 1002.212766 512 1002.212766z m3.631206-308.652482c101.673759 0 184.465248-82.791489 184.465248-184.465249S617.304965 323.903546 515.631206 323.903546 330.439716 406.695035 330.439716 508.368794 413.231206 693.560284 515.631206 693.560284z" fill="#F7D06F" p-id="677"></path><path d="M344.238298 576.635461C297.758865 607.86383 252.731915 639.092199 192.453901 639.092199 70.44539 639.092199 21.787234 570.825532 21.787234 509.821277 21.787234 240.385816 241.112057 21.787234 512 21.787234S1002.212766 240.385816 1002.212766 509.821277c0 77.707801-52.289362 129.270922-172.84539 129.270922-55.920567 0-100.947518-27.597163-145.248227-57.37305 10.167376-22.513475 15.977305-47.931915 15.977305-74.802837 0-101.673759-82.791489-183.739007-184.465248-183.739007S330.439716 405.242553 330.439716 506.916312c0 24.692199 5.083688 47.931915 13.798582 69.719149z" fill="#B68775" p-id="678"></path><path d="M829.367376 657.248227c-59.551773 0-105.304965-27.597163-155.415603-60.278014L661.605674 588.255319l6.53617-13.798581c9.441135-21.060993 14.524823-43.574468 14.524823-67.540426C681.940426 415.409929 607.137589 341.333333 515.631206 341.333333c-92.232624 0-167.035461 74.076596-167.035461 165.582979 0 21.787234 4.357447 42.848227 12.346099 63.182979l5.809929 13.798581-13.07234 8.714894c-47.205674 31.95461-95.86383 65.361702-161.225532 65.361702-130.723404 0-188.822695-74.076596-188.822695-147.42695 0-279.602837 228.039716-506.190071 508.368794-506.190071s508.368794 227.313475 508.368794 506.190071c0 54.468085-24.692199 146.700709-191.001418 146.700709zM706.632624 574.456738c40.669504 26.870922 77.707801 46.479433 122.734752 46.479432 103.126241 0 154.689362-37.038298 154.689362-111.114893 0-259.268085-212.062411-469.878014-472.056738-469.878015s-472.056738 210.609929-472.056738 469.878015c0 76.255319 76.98156 111.114894 152.510639 111.114893 49.384397 0 89.32766-23.965957 129.997163-51.56312-6.53617-20.334752-10.167376-41.395745-10.167376-62.456738C312.283688 395.075177 403.790071 305.021277 515.631206 305.021277s202.621277 90.780142 202.621276 201.895035c0 23.239716-4.357447 45.753191-11.619858 67.540426z" fill="#323232" p-id="679"></path><path d="M512 1020.368794c-280.329078 0-508.368794-228.039716-508.368794-508.368794s228.039716-508.368794 508.368794-508.368794 508.368794 228.039716 508.368794 508.368794-228.039716 508.368794-508.368794 508.368794z m0-980.425532c-259.994326 0-472.056738 212.062411-472.056738 472.056738s212.062411 472.056738 472.056738 472.056738 472.056738-212.062411 472.056738-472.056738-212.062411-472.056738-472.056738-472.056738zM515.631206 711.716312c-111.841135 0-203.347518-91.506383-203.347518-203.347518s91.506383-202.621277 203.347518-202.621276S718.252482 396.52766 718.252482 508.368794 627.47234 711.716312 515.631206 711.716312z m0-369.656738c-92.232624 0-167.035461 74.802837-167.035461 166.30922 0 92.232624 74.802837 167.035461 167.035461 167.035461 91.506383 0 166.30922-74.802837 166.30922-167.035461 0-91.506383-74.802837-166.30922-166.30922-166.30922z" fill="#323232" p-id="680"></path><path d="M145.248227 344.964539c-2.178723 0-4.357447 0-5.809929-0.726241-9.441135-3.631206-14.524823-13.798582-10.893617-23.239716 22.513475-63.182979 50.110638-99.495035 83.51773-112.567376 9.441135-3.631206 19.608511 1.452482 23.239717 10.893617s-1.452482 19.608511-10.893617 23.239716c-22.513475 8.714894-43.574468 39.943262-61.730497 90.780142-2.904965 7.262411-10.167376 11.619858-17.429787 11.619858z" fill="#3C3C3C" p-id="681"></path><path d="M265.078014 185.191489m-18.156028 0a18.156028 18.156028 0 1 0 36.312057 0 18.156028 18.156028 0 1 0-36.312057 0Z" fill="#3C3C3C" p-id="682"></path><path d="M311.557447 766.184397a33.407092 32.680851 0 1 0 66.814184 0 33.407092 32.680851 0 1 0-66.814184 0Z" fill="#2D2D2E" p-id="683"></path><path d="M381.276596 864.22695H315.188652C305.747518 864.22695 297.758865 855.512057 297.758865 844.61844s7.988652-19.608511 17.429787-19.608511h66.087944c9.441135 0 17.429787 8.714894 17.429787 19.608511-0.726241 10.893617-7.988652 19.608511-17.429787 19.60851z" fill="#F6627F" p-id="684"></path><path d="M639.092199 766.184397a33.407092 32.680851 0 1 0 66.814184 0 33.407092 32.680851 0 1 0-66.814184 0Z" fill="#2D2D2E" p-id="685"></path><path d="M708.811348 864.22695h-66.087944c-9.441135 0-17.429787-8.714894-17.429787-19.60851s7.988652-19.608511 17.429787-19.608511h66.087944c9.441135 0 17.429787 8.714894 17.429787 19.608511 0 10.893617-7.988652 19.608511-17.429787 19.60851z" fill="#F66A88" p-id="686"></path><path d="M474.961702 844.61844c-27.597163 0-50.110638-21.787234-50.110638-47.931915 0-9.441135 7.988652-17.429787 18.156028-17.429787s18.156028 7.988652 18.156029 17.429787c0 7.262411 6.53617 13.798582 14.524822 13.798581s14.524823-5.809929 14.524823-13.798581c0-9.441135 7.988652-17.429787 18.156028-17.429787s18.156028 7.988652 18.156029 17.429787c-1.452482 26.144681-23.965957 47.931915-51.563121 47.931915z" fill="#2D2D2E" p-id="687"></path><path d="M549.038298 844.61844c-27.597163 0-50.110638-21.787234-50.110638-47.931915 0-9.441135 7.988652-17.429787 18.156028-17.429787s18.156028 7.988652 18.156028 17.429787c0 7.262411 6.53617 13.798582 14.524823 13.798581s14.524823-5.809929 14.524823-13.798581c0-9.441135 7.988652-17.429787 18.156028-17.429787s18.156028 7.988652 18.156028 17.429787c-1.452482 26.144681-23.965957 47.931915-51.56312 47.931915z" fill="#2D2D2E" p-id="688"></path><path d="M389.265248 154.689362l41.395745-41.395745c4.357447-4.357447 10.893617-4.357447 15.251064 0 4.357447 4.357447 4.357447 10.893617 0 15.251064l-41.395745 41.395745c-4.357447 4.357447-10.893617 4.357447-15.251064 0-4.357447-4.357447-4.357447-10.893617 0-15.251064zM805.401418 512l-37.038297-44.300709c-3.631206-4.357447-2.904965-11.619858 1.452482-15.251064 4.357447-3.631206 11.619858-2.904965 15.251064 1.452482l37.038298 44.300709c3.631206 4.357447 2.904965 11.619858-1.452483 15.251064-4.357447 3.631206-10.893617 3.631206-15.251064-1.452482zM643.449645 241.838298l41.395745-41.395745c4.357447-4.357447 10.893617-4.357447 15.251064 0 4.357447 4.357447 4.357447 10.893617 0 15.251064l-41.395745 41.395745c-4.357447 4.357447-10.893617 4.357447-15.251064 0-4.357447-4.357447-4.357447-10.893617 0-15.251064z" fill="#F7DD01" p-id="689"></path><path d="M321.724823 216.419858l45.02695 36.312057c4.357447 3.631206 5.083688 10.893617 1.452482 15.251064-3.631206 4.357447-10.893617 5.083688-15.251064 1.452482l-45.02695-36.312057c-4.357447-3.631206-5.083688-10.893617-1.452482-15.251064 3.631206-4.357447 10.893617-5.083688 15.251064-1.452482z" fill="#1FCEEA" p-id="690"></path><path d="M249.100709 303.568794l45.026951 36.312057c4.357447 3.631206 5.083688 10.893617 1.452482 15.251064-3.631206 4.357447-10.893617 5.083688-15.251064 1.452482l-45.02695-36.312057c-4.357447-3.631206-5.083688-10.893617-1.452483-15.251063 3.631206-4.357447 10.893617-5.083688 15.251064-1.452483zM830.093617 303.568794l45.02695 36.312057c4.357447 3.631206 5.083688 10.893617 1.452483 15.251064-3.631206 4.357447-10.893617 5.083688-15.251064 1.452482l-45.026951-36.312057c-4.357447-3.631206-5.083688-10.893617-1.452482-15.251063 3.631206-4.357447 10.893617-5.083688 15.251064-1.452483z" fill="#F76B84" p-id="691"></path><path d="M298.485106 443.733333l-34.133333 47.205674c-3.631206 5.083688-10.167376 5.809929-15.251064 2.178723-5.083688-3.631206-5.809929-10.167376-2.178723-15.251063l34.133333-47.205674c3.631206-5.083688 10.167376-5.809929 15.251064-2.178723 4.357447 3.631206 5.809929 10.893617 2.178723 15.251063zM944.839716 487.307801l-34.133333 47.205674c-3.631206 5.083688-10.167376 5.809929-15.251064 2.178724-5.083688-3.631206-5.809929-10.167376-2.178723-15.251064l34.133333-47.205674c3.631206-5.083688 10.167376-5.809929 15.251064-2.178723 4.357447 3.631206 5.809929 10.893617 2.178723 15.251063z" fill="#C4F9C9" p-id="692"></path><path d="M143.069504 408.873759l51.56312 27.597163c5.083688 2.904965 7.262411 9.441135 4.357447 14.524823s-9.441135 7.262411-14.524823 4.357446l-51.56312-27.597163c-5.083688-2.904965-7.262411-9.441135-4.357447-14.524822 2.178723-5.083688 8.714894-7.262411 14.524823-4.357447zM605.685106 114.019858l-41.395744 41.395745c-4.357447 4.357447-10.893617 4.357447-15.251064 0-4.357447-4.357447-4.357447-10.893617 0-15.251064l41.395745-41.395745c4.357447-4.357447 10.893617-4.357447 15.251063 0 4.357447 4.357447 4.357447 10.893617 0 15.251064zM801.770213 230.21844l-41.395745 41.395744c-4.357447 4.357447-10.893617 4.357447-15.251064 0-4.357447-4.357447-4.357447-10.893617 0-15.251063l41.395745-41.395745c4.357447-4.357447 10.893617-4.357447 15.251064 0 4.357447 4.357447 4.357447 10.893617 0 15.251064z" fill="#FFFFFF" p-id="693"></path><path d="M128.544681 517.809929l51.56312 27.597163c5.083688 2.904965 7.262411 9.441135 4.357447 14.524823s-9.441135 7.262411-14.524822 4.357447l-51.563121-27.597163c-5.083688-2.904965-7.262411-9.441135-4.357447-14.524823 2.178723-5.083688 8.714894-7.262411 14.524823-4.357447zM516.357447 217.146099l47.205674 34.133334c5.083688 3.631206 5.809929 10.167376 2.178723 15.251063-3.631206 5.083688-10.167376 5.809929-15.251064 2.178724l-47.205674-34.133333c-5.083688-3.631206-5.809929-10.167376-2.178723-15.251064 3.631206-4.357447 10.893617-5.809929 15.251064-2.178724zM705.180142 340.607092l47.205674 34.133334c5.083688 3.631206 5.809929 10.167376 2.178723 15.251063-3.631206 5.083688-10.167376 5.809929-15.251064 2.178724l-47.205674-34.133334c-5.083688-3.631206-5.809929-10.167376-2.178723-15.251063 3.631206-4.357447 10.893617-5.809929 15.251064-2.178724z" fill="#F78FAE" p-id="694"></path></svg>